<svg xmlns="http://www.w3.org/2000/svg" viewBox="0 0 50 33.16"><defs></defs><g id="Layer_2" data-name="Layer 2"><g id="Layer_1-2" data-name="Layer 1"><path class="cls-1" d="M45.47,0H4.53A4.53,4.53,0,0,0,0,4.53v24.1a4.53,4.53,0,0,0,4.53,4.53H45.47A4.53,4.53,0,0,0,50,28.63V4.53A4.53,4.53,0,0,0,45.47,0Zm-.56,7.27L25.64,20.42l-.05,0a1.24,1.24,0,0,1-.2.1l-.09,0a.92.92,0,0,1-.29,0h0a.92.92,0,0,1-.29,0l-.09,0a1.24,1.24,0,0,1-.2-.1l-.05,0L5.09,7.27a1.16,1.16,0,0,1-.32-1.6,1.14,1.14,0,0,1,1.59-.32L24.64,17.84a.63.63,0,0,0,.72,0L43.64,5.35a1.14,1.14,0,0,1,1.59.32A1.16,1.16,0,0,1,44.91,7.27Z"/></g></g></svg>
